<svg xmlns="http://www.w3.org/2000/svg" viewBox="0 0 945.77 142.59"><defs><style>.cls-1{fill:#000;stroke:#006;stroke-miterlimit:10;stroke-width:4px;}</style></defs><g id="Layer_2" data-name="Layer 2"><g id="Layer_1-2" data-name="Layer 1"><path class="cls-1" d="M98.64,2H47.9L2.77,138.72H42.83l7.9-26.17H95.81l7.9,26.17h40.05ZM59.11,84.78,72.73,39.65H73.8L87.43,84.78Z"/><path class="cls-1" d="M247.1,69.56H213.19A9.39,9.39,0,0,0,211,64.15a12.62,12.62,0,0,0-5-3.5,19.38,19.38,0,0,0-14.85.5c-2.27,1.16-3.39,2.8-3.34,4.94a5.47,5.47,0,0,0,2,4.2c1.36,1.29,4,2.3,7.91,3L218.53,77q15.75,2.86,23.46,9.64t7.78,18.13a29.7,29.7,0,0,1-6.51,19,41.3,41.3,0,0,1-17.56,12.42,68.87,68.87,0,0,1-25.33,4.37q-23.51,0-36.75-9.61t-14.79-25.37h36.59a10.37,10.37,0,0,0,4.84,7.51,18.82,18.82,0,0,0,10.38,2.64A17.85,17.85,0,0,0,209,114a5.54,5.54,0,0,0,3.38-4.94,5.44,5.44,0,0,0-2.91-4.67c-1.89-1.16-4.84-2.09-8.84-2.81l-18.16-3.2Q166.79,95.65,159,88t-7.74-19.76q-.08-10.68,5.64-18.12t16.35-11.35q10.65-3.9,25.27-3.9,22.23,0,35.08,9.21T247.1,69.56Z"/><path class="cls-1" d="M292.49,140.32a43.4,43.4,0,0,1-17.32-3.24,25.77,25.77,0,0,1-11.78-9.84q-4.27-6.61-4.28-16.83A32.87,32.87,0,0,1,262,96a25.9,25.9,0,0,1,8-9.78,37.73,37.73,0,0,1,12-5.81,72.13,72.13,0,0,1,14.79-2.6,138.46,138.46,0,0,0,13.85-1.64c3.49-.64,6-1.56,7.58-2.74a5.6,5.6,0,0,0,2.33-4.7v-.27a7,7,0,0,0-3.07-6.14,13.53,13.53,0,0,0-7.88-2.14A14.69,14.69,0,0,0,301,62.52a9.78,9.78,0,0,0-4,7H263.12a35,35,0,0,1,6-17.26q5.31-7.9,15.53-12.68t25.5-4.77a69.84,69.84,0,0,1,19.76,2.57,46.58,46.58,0,0,1,14.88,7.14,32,32,0,0,1,9.38,10.68,27.84,27.84,0,0,1,3.24,13.25v70.23H322.94V124.3h-.81a29.62,29.62,0,0,1-7.44,9.28,27.91,27.91,0,0,1-9.95,5.14A44.14,44.14,0,0,1,292.49,140.32Zm12-23.23a18.39,18.39,0,0,0,7.91-1.74,15.18,15.18,0,0,0,6-5,13.3,13.3,0,0,0,2.34-7.95V93.86c-1,.4-2,.78-3.11,1.13s-2.24.69-3.47,1-2.51.6-3.87.86-2.77.52-4.24.74a21,21,0,0,0-7,2.17,10.34,10.34,0,0,0-4,3.67,9.21,9.21,0,0,0-1.3,4.84,7.7,7.7,0,0,0,3,6.54A12.42,12.42,0,0,0,304.51,117.09Z"/><path class="cls-1" d="M412.12,140.05A37.2,37.2,0,0,1,392,134.31q-9.18-5.73-14.68-17.42T371.8,87.45q0-18.56,5.77-30.17t15-17a37.53,37.53,0,0,1,19.32-5.4,31.69,31.69,0,0,1,13.36,2.63,28.71,28.71,0,0,1,9.61,7,31.34,31.34,0,0,1,5.87,9.58h.54V2h36.85V138.72H441.49V121.9h-.8a29.2,29.2,0,0,1-6.11,9.31,28.49,28.49,0,0,1-9.61,6.48A33.08,33.08,0,0,1,412.12,140.05Zm13.62-28.3a13.35,13.35,0,0,0,8.71-3,18.73,18.73,0,0,0,5.61-8.41,38.08,38.08,0,0,0,2-12.92,38.54,38.54,0,0,0-2-13,18.31,18.31,0,0,0-5.61-8.35,13.57,13.57,0,0,0-8.71-2.9,13.31,13.31,0,0,0-8.65,2.9,18.19,18.19,0,0,0-5.47,8.35,39.67,39.67,0,0,0-1.9,13,39.67,39.67,0,0,0,1.9,13,18.19,18.19,0,0,0,5.47,8.35A13.31,13.31,0,0,0,425.74,111.75Z"/><path class="cls-1" d="M562.73,93.86V36.18h36.84V138.72h-35V119.23h-1.06a29,29,0,0,1-11.69,15.32q-8.34,5.5-19.82,5.5a35.16,35.16,0,0,1-18.8-4.94,33.57,33.57,0,0,1-12.48-13.61,43.76,43.76,0,0,1-4.51-19.9V36.18h36.85V93.86q.07,7.61,3.91,12t10.78,4.34a15.58,15.58,0,0,0,8-2,13.22,13.22,0,0,0,5.21-5.61A18.67,18.67,0,0,0,562.73,93.86Z"/><path class="cls-1" d="M655.12,2V138.72H618.27V2Z"/><path class="cls-1" d="M710.66,2V138.72H673.81V2Z"/><path class="cls-1" d="M757.92,140.32a43.41,43.41,0,0,1-17.33-3.24,25.87,25.87,0,0,1-11.78-9.84q-4.27-6.61-4.27-16.83A32.87,32.87,0,0,1,727.41,96a25.9,25.9,0,0,1,8-9.78,37.84,37.84,0,0,1,12-5.81,72.13,72.13,0,0,1,14.79-2.6A138.09,138.09,0,0,0,776,76.2c3.49-.64,6-1.56,7.58-2.74a5.57,5.57,0,0,0,2.33-4.7v-.27a7,7,0,0,0-3.07-6.14A13.49,13.49,0,0,0,775,60.21a14.65,14.65,0,0,0-8.58,2.31,9.75,9.75,0,0,0-4,7H728.54a35,35,0,0,1,6-17.26q5.31-7.9,15.52-12.68t25.5-4.77a69.84,69.84,0,0,1,19.76,2.57,46.74,46.74,0,0,1,14.89,7.14,32.1,32.1,0,0,1,9.38,10.68,27.84,27.84,0,0,1,3.24,13.25v70.23H788.36V124.3h-.8a29.79,29.79,0,0,1-7.45,9.28,27.86,27.86,0,0,1-9.94,5.14A44.19,44.19,0,0,1,757.92,140.32Zm12-23.23a18.36,18.36,0,0,0,7.91-1.74,15.21,15.21,0,0,0,6-5,13.37,13.37,0,0,0,2.33-7.95V93.86c-1,.4-2,.78-3.1,1.13s-2.25.69-3.47,1-2.52.6-3.88.86-2.77.52-4.23.74a21,21,0,0,0-7,2.17,10.41,10.41,0,0,0-4,3.67,9.31,9.31,0,0,0-1.3,4.84,7.68,7.68,0,0,0,3,6.54A12.39,12.39,0,0,0,769.93,117.09Z"/><path class="cls-1" d="M877.28,81v57.68H840.43V2h35.51V55.67H877a30.08,30.08,0,0,1,11.55-15.32q8.07-5.51,19.43-5.5a35.36,35.36,0,0,1,18.92,4.94A33.6,33.6,0,0,1,939.4,53.4a42.58,42.58,0,0,1,4.37,19.9v65.42H906.92V81q.06-7.61-3.77-12t-10.92-4.34a15.27,15.27,0,0,0-7.84,2,13.22,13.22,0,0,0-5.21,5.61A19.74,19.74,0,0,0,877.28,81Z"/></g></g></svg>